# xmcd CD database file
#
# Track frame offsets:
#	150
#	13292
#	28052
#	42402
#	57152
#	71807
#	90595
#	103227
#	118020
#	134287
#	158002
#	163880
#	178985
#	197690
#	216565
#	230422
#	243850
#	257770
#	272145
#	289597
#
# Disc length: 4215 seconds
#
# Revision: 0
# Processed by: cddbd v1.5.1PL2 Copyright (c) Steve Scherf et al.
# Submitted via: CDex 1.60beta1
#
DISCID=31107514
DTITLE=憂歌団 - ベスト・コレクション
DYEAR=1998
DGENRE=Blues
TTITLE0=嫌んなった
TTITLE1=おそうじオバチャン
TTITLE2=１０＄の恋
TTITLE3=たくわん
TTITLE4=出直しブルース
TTITLE5=金持ちのオッサン
TTITLE6=カントリーガール
TTITLE7=当たれ！　宝くじ
TTITLE8=パチンコ～ランラン・ブルース（Ｌｉｖｅ）
TTITLE9=ステイ・ウィズ・ユー・フォーエバー（君といつまでも）（Ｌｉｖｅ）
TTITLE10=イコマ（女町エレジー）（Ｌｉｖｅ）
TTITLE11=憂歌団のテーマ（嵐を呼ぶ男）（Ｌｉｖｅ）
TTITLE12=ケツに火がついた
TTITLE13=夜明けのララバイ
TTITLE14=どてらい女
TTITLE15=俺の村では俺も人気者
TTITLE16=はんか街のはんぱ女
TTITLE17=ボクサー
TTITLE18=スティーリン
TTITLE19=シカゴ・バウンド
EXTD=YEAR: 1998
EXTT0=
EXTT1=
EXTT2=
EXTT3=
EXTT4=
EXTT5=
EXTT6=
EXTT7=
EXTT8=
EXTT9=
EXTT10=
EXTT11=
EXTT12=
EXTT13=
EXTT14=
EXTT15=
EXTT16=
EXTT17=
EXTT18=
EXTT19=
PLAYORDER=
